<!-- Copyright © 2000–2024 JetBrains s.r.o. -->
<svg width="16" height="17" viewBox="0 0 16 17" xmlns="http://www.w3.org/2000/svg">
  <path fill="#039BA1" d="M2.29 11.5h1.23V8.71h3.24V7.57H3.52V5.64h3.44V4.5H2.29zM13 9.72c.08-.15.18-.29.31-.41v-.49h-1.03l.35-1.65h1.18v-.9h-.98l.38-1.77h-.99l-.38 1.78h-1.49l.38-1.78h-.99l-.38 1.78H8.13v.9h1.03l-.35 1.64H7.63v.9h.98l-.38 1.77h.99l.38-1.77h1.49l-.38 1.77h.99l.38-1.78H13zm-1.72-.89H9.79l.35-1.65h1.49z"/>
  <path fill="#834DF0" d="M15.25 10.46c0 .37-.3.68-.76.68-.4 0-.7-.25-.7-.61 0-.39.3-.68.76-.68.39 0 .7.25.7.61m-.95 4.37c0-.16-.02-.04.57-2.83H13.6c-.42 1.98-.6 2.67-.6 3.13 0 .59.34.94 1.01.94.28 0 .6-.06.81-.12l.2-.94c-.12.05-.26.08-.4.08-.18 0-.31-.08-.31-.27z"/>
</svg>
