<!-- Copyright © 2000–2024 JetBrains s.r.o. -->
<svg width="16" height="16.08" viewBox="0 0 16 16.08" xmlns="http://www.w3.org/2000/svg">
    <path fill="#2eb2bc" d="M3 13h1.9V9.04h2.79V7.76H4.9V5.67h3.5V4H3zm9.24 0h.12c.01-.06.02-.12.04-.18l.22-1.03c.05-.23.17-.42.34-.56a1.5 1.5 0 0 1-.17-.71c0-.68.39-1.23.97-1.5l.1-1.27h1.05L15 6.57h-1.05L14.16 4h-1.2l-.21 2.57h-1.2L11.76 4h-1.2l-.21 2.57H9.3l-.09 1.18h1.05l-.12 1.5H9.09L9 10.43h1.05L9.84 13h1.2l.21-2.57h1.2zm-.9-3.75.12-1.5h1.2l-.12 1.5z"/>
    <path fill="#b99bf8" d="M15.25 10.46c0 .37-.3.68-.76.68-.4 0-.7-.25-.7-.61 0-.39.3-.68.76-.68.39 0 .7.25.7.61m-.95 4.37c0-.16-.02-.04.57-2.83H13.6c-.42 1.98-.6 2.67-.6 3.13 0 .59.34.94 1.01.94.28 0 .6-.06.81-.12l.2-.94c-.12.05-.26.08-.4.08-.18 0-.31-.08-.31-.27Z"/>
</svg>
