<svg xmlns="http://www.w3.org/2000/svg" width="16" height="16" viewBox="0 0 16 16">
  <title>Fsharp</title>
  <g>
    <rect width="16" height="16" fill="#ffe3ff" opacity="0"/>
    <g>
      <polygon points="15.615 11.429 16 6.61 16 5.571 15.038 5.571 15.244 3 9.637 3 9.431 5.571 9.4 5.571 9.4 3 2 3 2 14 5.9 14 5.9 10.043 8.028 10.043 7.917 11.429 8.962 11.429 8.756 14 14.363 14 14.569 11.429 15.615 11.429" fill="#f4f4f4"/>
      <path d="M14.906,7.75,15,6.571H13.954L14.16,4h-1.2l-.206,2.571h-1.2L11.76,4h-1.2l-.206,2.571H9.309L9.214,7.75H10.26l-.12,1.5H9.094L9,10.429h1.046L9.84,13h1.2l.206-2.571h1.2L12.24,13h1.2l.206-2.571h1.046l.094-1.179H13.74l.12-1.5ZM12.54,9.25h-1.2l.12-1.5h1.2ZM4.9,5.671V7.757H7.686V9.043H4.9V13H3V4H8.4V5.671Z" fill="#0089a3"/>
    </g>
  </g>
</svg>
