<!-- Copyright © 2000–2024 JetBrains s.r.o. -->
<svg width="16" height="16" viewBox="0 0 16 16" xmlns="http://www.w3.org/2000/svg">
  <path fill="#2eb2bc" d="M3 13h1.9V9.04h2.79V7.76H4.9V5.67h3.5V4H3zm8 0v-2c0-.36.2-.7.52-.88a1.01 1.01 0 0 1 1.01.03l1.08.68.03-.4h1.05l.09-1.18h-1.05l.12-1.5h1.05l.09-1.18h-1.05L14.15 4h-1.2l-.21 2.57h-1.2L11.75 4h-1.2l-.21 2.57H9.29L9.2 7.75h1.05l-.12 1.5H9.08l-.09 1.18h1.05L9.83 13h1.16Zm.46-5.25h1.2l-.12 1.5h-1.2z"/>
  <path fill="#62b543" fill-rule="evenodd" d="m12 11 4 2.5-4 2.5z"/>
</svg>
