<svg xmlns="http://www.w3.org/2000/svg" width="16" height="16" viewBox="0 0 16 16">
  <title>FsharpScript</title>
  <g>
    <rect width="16" height="16" fill="#ffe3ff" opacity="0"/>
    <g>
      <g>
        <polygon points="16 9.13 12.46 5 10 5 10 6.853 12.269 9.5 10 12.147 10 14 12.46 14 16 9.87 16 9.13" fill="#f4f4f4"/>
        <polygon points="11 13 12 13 15 9.5 12 6 11 6 11 6.483 13.586 9.5 11 12.517 11 13" fill="#323232"/>
      </g>
      <g>
        <polygon points="3.6 12 4.782 12 4.611 14 9.618 14 9.79 12 10.661 12 11 8.039 11 7 10.218 7 10.389 5 0 5 0 14 3.6 14 3.6 12" fill="#f4f4f4"/>
        <path d="M2.6,7.3V9H4.5v1H2.6v3H1V6H5.5V7.3ZM9.043,9l-.086,1h.872l-.086,1H8.871L8.7,13h-1l.171-2h-1L6.7,13h-1l.171-2H5l.086-1h.871l.086-1H5.171l.086-1h.872L6.3,6h1L7.129,8h1L8.3,6h1L9.129,8H10L9.914,9Zm-1,0h-1l-.086,1h1Z" fill="#0089a3"/>
      </g>
    </g>
  </g>
</svg>
